<?xml version="1.0" standalone="no"?>
<!DOCTYPE svg PUBLIC "-//W3C//DTD SVG 20010904//EN"
 "http://www.w3.org/TR/2001/REC-SVG-20010904/DTD/svg10.dtd">
<svg version="1.0" xmlns="http://www.w3.org/2000/svg"
 width="410.000000pt" height="410.000000pt" viewBox="0 0 410.000000 410.000000"
 preserveAspectRatio="xMidYMid meet">
<metadata>
Created by potrace 1.14, written by Peter Selinger 2001-2017
</metadata>
<g transform="translate(0.000000,410.000000) scale(0.100000,-0.100000)"
fill="#000000" stroke="none">
<path d="M2610 3744 c-157 -46 -313 -92 -348 -102 -50 -13 -62 -20 -60 -35 3
-16 -53 -42 -352 -163 -451 -182 -407 -161 -387 -182 16 -15 10 -20 -74 -74
-49 -32 -93 -58 -96 -58 -4 0 -14 -6 -22 -14 -9 -8 -32 -23 -51 -34 -35 -19
-146 -88 -515 -317 -104 -65 -228 -141 -274 -168 -72 -44 -80 -52 -62 -59 22
-8 22 -8 15 -315 -3 -170 -7 -341 -9 -381 -2 -67 -1 -73 16 -69 13 4 46 -28
126 -117 59 -66 110 -123 114 -126 3 -3 50 -54 104 -115 53 -60 115 -129 136
-151 43 -46 47 -54 21 -50 -9 2 -55 7 -102 11 -47 3 -96 8 -110 10 -14 2 -54
6 -90 10 -61 6 -85 8 -192 20 -24 2 -74 7 -113 10 -38 3 -83 8 -98 11 l-29 6
35 -54 c19 -30 45 -71 58 -91 13 -20 31 -37 39 -38 8 0 24 -2 35 -4 11 -2 58
-7 105 -10 47 -4 96 -8 110 -10 14 -2 61 -7 105 -10 44 -3 98 -8 120 -10 22
-2 76 -6 120 -10 44 -3 85 -8 92 -10 8 -3 5 -21 -11 -63 -13 -33 -21 -64 -17
-70 3 -5 110 -41 236 -80 l230 -69 7 23 c3 13 9 47 12 76 4 29 8 62 11 73 2
11 4 31 4 43 1 24 2 24 94 17 50 -3 99 -8 107 -10 8 -2 57 -7 108 -10 52 -4
106 -8 120 -10 15 -2 65 -6 112 -10 47 -4 96 -8 110 -10 14 -2 61 -7 105 -10
136 -11 157 -15 175 -38 10 -12 27 -33 39 -47 l22 -25 -3 45 c-2 26 1 44 7 44
11 -2 143 -14 210 -19 22 -2 76 -7 120 -10 44 -4 91 -8 105 -10 14 -2 63 -6
110 -10 47 -4 96 -8 110 -10 14 -2 59 -6 100 -10 41 -3 97 -8 124 -11 26 -3
71 -7 100 -9 62 -4 190 -16 193 -19 2 -1 44 -137 94 -302 50 -164 92 -300 94
-301 4 -6 157 -5 162 1 3 3 0 14 -8 23 -17 22 -16 20 -124 228 -48 94 -105
202 -125 240 -21 39 -59 112 -86 163 l-48 92 -40 1 c-23 0 -50 2 -61 4 -11 2
-37 6 -58 8 -21 3 -40 7 -43 9 -6 6 -18 203 -29 473 -4 83 -8 166 -10 185 -6
53 -6 241 -1 270 3 14 7 43 10 65 3 22 8 56 11 75 2 19 7 55 10 80 3 25 10 74
15 110 5 36 12 83 14 105 4 39 23 174 31 225 2 14 7 48 10 75 3 28 8 61 10 75
3 14 7 47 11 74 6 61 15 78 48 96 14 7 26 17 26 22 0 4 -21 39 -46 77 l-45 69
70 263 c39 145 69 264 68 266 -9 8 -655 253 -667 252 -8 0 -143 -38 -300 -85z
m294 -1232 c2 -4 7 -66 11 -137 3 -72 8 -155 10 -185 2 -30 7 -118 10 -195 4
-77 8 -158 10 -180 2 -22 4 -76 5 -120 2 -44 6 -84 10 -90 4 -5 29 -50 55
-100 48 -91 81 -152 134 -247 16 -29 43 -80 60 -113 18 -33 45 -84 62 -113
l30 -54 -96 7 c-52 3 -104 8 -114 10 -10 2 -54 6 -97 10 -43 4 -86 9 -95 10
-9 2 -56 6 -105 10 -49 3 -96 8 -104 10 -8 2 -46 7 -85 10 -191 14 -200 17
-203 58 -1 18 -4 42 -6 53 -2 11 -7 47 -11 79 -4 33 -9 67 -10 75 -2 8 -8 51
-15 95 -6 44 -13 91 -15 104 -2 13 -7 45 -11 70 -3 25 -7 56 -9 67 -2 12 -11
75 -19 140 -9 66 -18 127 -20 136 -4 17 34 57 180 195 131 122 389 370 403
386 17 18 27 21 35 9z m-1289 -664 c107 -134 289 -361 376 -468 15 -19 60 -75
100 -125 39 -49 85 -105 100 -123 47 -54 45 -55 -92 -37 -20 3 -70 7 -110 11
-41 3 -85 7 -99 10 -14 2 -61 6 -105 10 -44 3 -91 7 -105 9 -31 6 -159 18
-183 19 -17 0 -18 6 -11 56 9 67 9 77 1 115 -6 29 -34 154 -42 185 -2 8 -13
59 -25 114 -24 107 -25 102 28 191 9 17 30 54 46 83 16 28 32 52 35 51 3 0 42
-45 86 -101z"/>
</g>
</svg>
